<svg width="38" height="43" viewBox="0 0 38 43" fill="none" xmlns="http://www.w3.org/2000/svg">
<path fill-rule="evenodd" clip-rule="evenodd" d="M16.6667 2.35333C17.3398 1.79943 18.1586 1.5 19 1.5C19.8414 1.5 20.6602 1.79943 21.3333 2.35333L34.9444 13.5533C35.4274 13.9508 35.8194 14.4661 36.0894 15.0586C36.3594 15.651 36.5 16.3043 36.5 16.9667V37.2333C36.5 38.3649 36.0903 39.4502 35.361 40.2503C34.6317 41.0505 33.6425 41.5 32.6111 41.5H5.38889C4.35749 41.5 3.36834 41.0505 2.63903 40.2503C1.90972 39.4502 1.5 38.3649 1.5 37.2333V16.9667C1.5 16.3043 1.64056 15.651 1.91056 15.0586C2.18056 14.4661 2.57257 13.9508 3.05556 13.5533L16.6667 2.35333Z" stroke="currentColor" stroke-width="3"/>
</svg>
