<svg width="43" height="43" viewBox="0 0 43 43" fill="none" xmlns="http://www.w3.org/2000/svg">
<path d="M17.1641 6.4544L2.68444 10.4758C2.48184 10.5281 2.29188 10.6184 2.12541 10.7417C1.95894 10.865 1.81923 11.0188 1.71428 11.1944C1.60932 11.3699 1.54117 11.5638 1.51373 11.7648C1.48628 11.9658 1.50008 12.1701 1.55433 12.366L8.26285 40.3553C8.37198 40.7503 8.63875 41.0873 9.00457 41.2922C9.37039 41.4971 9.80536 41.5532 10.2139 41.4482L30.4361 37.2611L30.5126 36.186M20.09 1.55196C19.6818 1.44685 19.2473 1.50254 18.8815 1.70681C18.5158 1.91109 18.2487 2.24729 18.1389 2.6417L10.3844 30.6342C10.2758 31.0293 10.3339 31.45 10.5458 31.8038C10.7577 32.1576 11.1061 32.4156 11.5145 32.5212L31.7334 37.7609C32.142 37.8659 32.577 37.8098 32.9428 37.6049C33.3086 37.3999 33.5754 37.063 33.6845 36.668L41.4457 8.67866C41.4999 8.48279 41.5137 8.27849 41.4863 8.07745C41.4588 7.87642 41.3907 7.68258 41.2857 7.50703C41.1808 7.33149 41.0411 7.17767 40.8746 7.05438C40.7081 6.93109 40.5182 6.84074 40.3156 6.7885L20.09 1.55196Z" stroke="currentColor" stroke-width="3"/>
</svg>
